<svg width="40" height="34" viewBox="0 0 40 34" fill="none" xmlns="http://www.w3.org/2000/svg">
<path d="M40 4.431C38.5125 5.0835 36.9275 5.516 35.275 5.726C36.975 4.711 38.2725 3.116 38.8825 1.1935C37.2975 2.1385 35.5475 2.806 33.6825 3.1785C32.1775 1.576 30.0325 0.583496 27.6925 0.583496C23.1525 0.583496 19.4975 4.2685 19.4975 8.786C19.4975 9.436 19.5525 10.061 19.6875 10.656C12.87 10.3235 6.8375 7.056 2.785 2.0785C2.0775 3.306 1.6625 4.711 1.6625 6.2235C1.6625 9.0635 3.125 11.581 5.305 13.0385C3.9875 13.0135 2.695 12.631 1.6 12.0285C1.6 12.0535 1.6 12.086 1.6 12.1185C1.6 16.1035 4.4425 19.4135 8.17 20.176C7.5025 20.3585 6.775 20.446 6.02 20.446C5.495 20.446 4.965 20.416 4.4675 20.306C5.53 23.5535 8.545 25.941 12.13 26.0185C9.34 28.201 5.7975 29.516 1.9625 29.516C1.29 29.516 0.645 29.486 0 29.4035C3.6325 31.746 7.9375 33.0835 12.58 33.0835C27.67 33.0835 35.92 20.5835 35.92 9.7485C35.92 9.386 35.9075 9.036 35.89 8.6885C37.5175 7.5335 38.885 6.091 40 4.431Z" fill="white"/>
</svg>
